<svg xmlns="http://www.w3.org/2000/svg" viewBox="0 0 820 470" width="820" height="470" role="img" aria-labelledby="title desc" lang="ar" direction="rtl">
  <title id="title">حلقة تنفيذ الوكيل المستقل</title>
  <desc id="desc">يفكر الوكيل ويتصرف ويراقب بالتتابع، ثم يتحقق من شروط الخروج ليعيد النتيجة النهائية أو يبدأ دورة جديدة.</desc>
  <defs>
    <marker id="arrow-dark" markerWidth="9" markerHeight="7" refX="8" refY="3.5" orient="auto" markerUnits="userSpaceOnUse">
      <polygon points="0 0, 9 3.5, 0 7" fill="#333333"/>
    </marker>
    <marker id="arrow-light" markerWidth="9" markerHeight="7" refX="8" refY="3.5" orient="auto" markerUnits="userSpaceOnUse">
      <polygon points="0 0, 9 3.5, 0 7" fill="#777777"/>
    </marker>
    <style>
      .sans { font-family: Arial, "Helvetica Neue", Helvetica, "Noto Sans Arabic", "Geeza Pro", sans-serif; }
      .code { font-family: "Courier New", Courier, monospace; }
      .heading { fill: #333333; font-size: 16px; font-weight: 700; }
      .body { fill: #333333; font-size: 15px; }
      .small { font-size: 14px; }
      .note { fill: #666666; font-size: 14px; }
      .box { stroke: #333333; stroke-width: 2; }
      .flow { fill: none; stroke: #333333; stroke-width: 2; marker-end: url(#arrow-dark); }
    </style>
  </defs>

  <rect width="820" height="470" fill="#ffffff"/>

  <rect class="box" x="45" y="70" width="210" height="96" rx="8" fill="#e8e8e8"/>
  <text class="sans heading" x="150" y="95" text-anchor="middle" dominant-baseline="middle" direction="rtl">١. التفكير</text>
  <rect x="60" y="112" width="180" height="38" rx="5" fill="#ffffff" stroke="#777777"/>
  <text class="sans body" x="150" y="132" text-anchor="middle" dominant-baseline="middle" direction="rtl">&quot;بحاجة إلى معلومات&quot;</text>

  <rect class="box" x="305" y="70" width="210" height="96" rx="8" fill="#f0f0f0"/>
  <text class="sans heading" x="410" y="95" text-anchor="middle" dominant-baseline="middle" direction="rtl">٢. الفعل</text>
  <rect x="320" y="112" width="180" height="38" rx="5" fill="#ffffff" stroke="#777777"/>
  <text class="code body" x="410" y="132" text-anchor="middle" dominant-baseline="middle" direction="ltr">web_search(...)</text>

  <rect class="box" x="565" y="70" width="210" height="96" rx="8" fill="#f0f0f0"/>
  <text class="sans heading" x="670" y="95" text-anchor="middle" dominant-baseline="middle" direction="rtl">٣. الملاحظة</text>
  <rect x="580" y="112" width="180" height="38" rx="5" fill="#ffffff" stroke="#777777"/>
  <text class="code body" x="670" y="132" text-anchor="middle" dominant-baseline="middle" direction="ltr">tool_result: &quot;...&quot;</text>

  <line class="flow" x1="255" y1="118" x2="302" y2="118"/>
  <line class="flow" x1="515" y1="118" x2="562" y2="118"/>
  <line class="flow" x1="670" y1="166" x2="670" y2="207"/>

  <rect x="45" y="220" width="430" height="145" rx="8" fill="#ffffff" stroke="#777777" stroke-width="2" stroke-dasharray="7 4"/>
  <text class="sans heading" x="260" y="244" text-anchor="middle" dominant-baseline="middle" direction="rtl">شروط الخروج (يكفي أحدها)</text>
  <line x1="65" y1="258" x2="455" y2="258" stroke="#cccccc"/>
  <text class="sans body small" x="357" y="282" text-anchor="middle" dominant-baseline="middle" direction="rtl">١. اكتملت المهمة</text>
  <text class="sans body small" x="157" y="282" text-anchor="middle" dominant-baseline="middle" direction="rtl">٢. استدعاء final_answer</text>
  <text class="sans body small" x="357" y="314" text-anchor="middle" dominant-baseline="middle" direction="rtl">٣. لا يوجد استدعاء أداة</text>
  <text class="sans body small" x="157" y="314" text-anchor="middle" dominant-baseline="middle" direction="rtl">٤. تجاوز حد الأخطاء</text>
  <text class="sans body small" x="357" y="346" text-anchor="middle" dominant-baseline="middle" direction="rtl">٥. بلوغ الحد الأقصى للجولات</text>

  <path d="M 475 260 H 587" fill="none" stroke="#777777" stroke-width="2" stroke-dasharray="6 4" marker-end="url(#arrow-light)"/>
  <rect x="497" y="238" width="72" height="20" rx="3" fill="#ffffff"/>
  <text class="sans note" x="533" y="248" text-anchor="middle" dominant-baseline="middle" direction="rtl">أساس القرار</text>

  <polygon class="box" points="670,208 750,260 670,312 590,260" fill="#e2e2e2"/>
  <text class="sans heading" x="670" y="252" text-anchor="middle" dominant-baseline="middle" direction="rtl">تحقق شرط</text>
  <text class="sans heading" x="670" y="273" text-anchor="middle" dominant-baseline="middle" direction="rtl">الخروج؟</text>

  <path class="flow" d="M 750 260 H 795 V 35 H 150 V 67"/>
  <text class="sans note" x="773" y="245" text-anchor="middle" dominant-baseline="middle" direction="rtl">لا</text>
  <rect x="360" y="43" width="120" height="22" rx="3" fill="#ffffff"/>
  <text class="sans note" x="420" y="54" text-anchor="middle" dominant-baseline="middle" direction="rtl">متابعة الحلقة</text>

  <line class="flow" x1="670" y1="312" x2="670" y2="379"/>
  <text class="sans note" x="685" y="346" dominant-baseline="middle" direction="rtl">نعم</text>
  <rect class="box" x="555" y="382" width="230" height="68" rx="8" fill="#d6d6d6"/>
  <text class="sans heading" x="670" y="416" text-anchor="middle" dominant-baseline="middle" direction="rtl">إرجاع النتيجة النهائية</text>
</svg>
